# xmcd
#
# Track frame offsets:
#	150
#	11153
#	31436
#	42828
#	54450
#	68063
#	87918
#	103392
#	105441
#	109203
#	117040
#	130062
#	139498
#	150378
#	165922
#	179296
#	188107
#	197905
#	216882
#	231411
#	244362
#	245942
#	264544
#	279852
#	282772
#	298520
#	311981
#	328820
#	337670
#	353595
#
# Disc length: 4906 seconds
#
# Revision: 4
# Processed by: cddbd v1.5.2PL0 Copyright (c) Steve Scherf et al.
# Submitted via: EZCDAudioConverter 1.3.4.1
#
DISCID=c213281e
DTITLE=V/A - Next Stop Is Vietnam 7/13
DYEAR=2010
DGENRE=
TTITLE0=Hershel Gober - Goodbye Travis Air Force Base
TTITLE1=High Priced Help - Vietnam
TTITLE2=SSgt Barry Sadler - Saigon
TTITLE3=SSgt Barry Sadler - Bamiba (Ba Muoi Ba)
TTITLE4=The Merrymen - Saigon Girls
TTITLE5=Maggie - Saigon Warrior
TTITLE6=Unknown singer - Battle Hymn Of The Republic Of Vietnam
TTITLE7=Secretary of Defense Robert McNamara comments on the war's progress
TTITLE7=(1964)
TTITLE8=Dolf Droge - McNamara's Band
TTITLE9=Dolf Droge - Southeast Asia's Disneyland
TTITLE10=Bill Ellis - Grunt
TTITLE11=Hershel Gober - Six Klicks
TTITLE12=Radioman George Hughes - Ballad Of The USS St. Francis River
TTITLE13=Jim Bullington - Brave Boys
TTITLE14=Jim Hatch - The Men Of MAG-16
TTITLE15=Dave McKay - I Fly The Line
TTITLE16=Tony McPeak - Phu Cat Star
TTITLE17=Toby Hughes - Tchepone
TTITLE18=The Merrymen - Army Aviation
TTITLE19=Bull Durham - Jolly Green
TTITLE20=''This is the American Forces Vietnam Network, where the hits just
TTITLE20=keep on coming....'' (''Off-air'' November 1970)
TTITLE21=Paul Revere and The Raiders - Armed Forces Radio
TTITLE22=Paul Revere and The Raiders - We Gotta Get Out Of This Place
TTITLE23=Introduction to ''A Date With Chris'' (Chris Noel, AFVN DJ)
TTITLE24=Peter, Paul and Mary - Leaving On A Jet Plane
TTITLE25=Johnny Cash - Singing In Viet Nam Talking Blues
TTITLE26=Chuck Rosenberg - Boonie Rat Song
TTITLE27=Chip Dockery and Dick Jonas - I've Been Everywhere
TTITLE28=Chuck Rosenberg, Saul Broudy and Bull Durham - Played Around And Stayed
TTITLE28=Around Vietnam Too Long
TTITLE29=Bill Ellis - Freedom Bird
EXTD=
EXTT0=
EXTT1=
EXTT2=
EXTT3=
EXTT4=
EXTT5=
EXTT6=
EXTT7=
EXTT8=
EXTT9=
EXTT10=
EXTT11=
EXTT12=
EXTT13=
EXTT14=
EXTT15=
EXTT16=
EXTT17=
EXTT18=
EXTT19=
EXTT20=
EXTT21=
EXTT22=
EXTT23=
EXTT24=
EXTT25=
EXTT26=
EXTT27=
EXTT28=
EXTT29=
PLAYORDER=
